#N canvas 45 25 1339 789 12;
#X obj 37 87 key;
#X floatatom 37 113 5 0 0 0 - - - 0;
#X text 139 273 G;
#X text 110 301 V;
#X text 79 328 F;
#X text 50 355 C;
#X text 20 385 D;
#X obj 154 272 bng 19 250 50 0 empty empty empty 0 -10 0 12 #fcfcfc #000000 #000000;
#X obj 126 300 bng 19 250 50 0 empty empty empty 0 -10 0 12 #fcfcfc #000000 #000000;
#X obj 95 328 bng 19 250 50 0 empty empty empty 0 -10 0 12 #fcfcfc #000000 #000000;
#X obj 36 383 bng 19 250 50 0 empty empty empty 0 -10 0 12 #fcfcfc #000000 #000000;
#X obj 65 355 bng 19 250 50 0 empty empty empty 0 -10 0 12 #fcfcfc #000000 #000000;
#X text 177 272 Tom 3;
#X text 119 327 Tom 2;
#X text 59 383 Tom 1;
#X text 150 300 Snare;
#X text 90 354 Kick;
#X obj 184 246 bng 19 250 50 0 empty empty empty 0 -10 0 12 #fcfcfc #000000 #000000;
#X obj 241 191 bng 19 250 50 0 empty empty empty 0 -10 0 12 #fcfcfc #000000 #000000;
#X obj 213 218 bng 19 250 50 0 empty empty empty 0 -10 0 12 #fcfcfc #000000 #000000;
#X obj 270 164 bng 19 250 50 0 empty empty empty 0 -10 0 12 #fcfcfc #000000 #000000;
#X text 235 218 Closed Hi-Hat;
#X text 207 246 Open Hi-Hat;
#X text 267 191 Ride;
#X text 294 164 Crash;
#X text 198 220 X;
#X text 169 247 S;
#X text 254 165 W;
#X obj 37 137 sel 100 99 102 118 103 115 120 101 119;
#X text 226 192 E;
#X obj 155 37 array define kick_array;
#X obj 326 60 array define crash_array;
#X obj 326 83 array define ride_array;
#X obj 326 106 array define hh-closed_array;
#X obj 326 129 array define hh-open_array;
#X obj 155 83 array define tom3_array;
#X obj 148 106 array define snare_array;
#X obj 155 14 array define tom2_array;
#X obj 155 60 array define tom1_array;
#X obj 598 29 vsl 19 162 0 1 0 0 empty empty empty 0 -9 0 12 #00ff04 #000000 #000000 0 1;
#X obj 553 29 vsl 19 162 0 1 0 0 empty empty empty 0 -9 0 12 #00ff04 #000000 #000000 0 1;
#X obj 555 266 vsl 19 162 0 1 0 0 empty empty empty 0 -9 0 12 #00ff04 #000000 #000000 0 1;
#X obj 599 266 vsl 19 162 0 1 0 0 empty empty empty 0 -9 0 12 #00ff04 #000000 #000000 0 1;
#X obj 553 230 send kick_vol;
#X text 536 178 K;
#X text 582 178 S;
#X obj 598 204 send snare_vol;
#X text 582 415 T;
#X obj 599 441 send tom_vol;
#X obj 364 479 receive snare_vol;
#X obj 364 434 receive kick_vol;
#X obj 364 568 receive tom_vol;
#X obj 44 455 *~;
#X obj 69 498 *~;
#X obj 95 542 *~;
#X obj 121 587 *~;
#X obj 47 783 dac~;
#X obj 1076 72 send master_vol;
#X obj 82 726 receive master_vol;
#X obj 44 569 +~;
#X obj 44 595 +~;
#X obj 44 544 +~;
#X obj 45 707 *~;
#X obj 364 183 tabplay~ crash_array;
#X obj 364 210 tabplay~ ride_array;
#X obj 364 237 tabplay~ hh-closed_array;
#X obj 364 265 tabplay~ hh-open_array;
#X obj 364 292 tabplay~ tom3_array;
#X obj 364 321 tabplay~ snare_array;
#X obj 364 348 tabplay~ tom2_array;
#X obj 364 375 tabplay~ kick_array;
#X obj 365 402 tabplay~ tom1_array;
#X text 1148 52 Master Volume;
#X obj 364 523 receive crash_vol;
#X obj 364 612 receive hh_vol;
#X obj 364 656 receive ride_vol;
#X obj 148 631 *~;
#X obj 175 675 *~;
#X obj 44 620 +~;
#X obj 44 645 +~;
#X obj 1079 29 hsl 162 19 0 1 0 0 empty empty empty -2 -10 0 12 #fcfcfc #ff0cf6 #000000 0 1;
#X obj 558 514 vsl 19 162 0 1 0 0 empty empty empty 0 -9 0 12 #00ff04 #000000 #000000 0 1;
#X obj 602 514 vsl 19 162 0 1 0 0 empty empty empty 0 -9 0 12 #00ff04 #000000 #000000 0 1;
#X text 540 662 C;
#X obj 555 467 send hh_vol;
#X text 530 414 HH;
#X obj 558 715 send crash_vol;
#X text 585 663 R;
#X obj 602 689 send ride_vol;
#X obj 44 476 *~;
#X obj 364 457 receive kick_gain;
#X obj 69 520 *~;
#X obj 95 564 *~;
#X obj 121 609 *~;
#X obj 148 653 *~;
#X obj 175 697 *~;
#X obj 364 501 receive snare_gain;
#X obj 364 546 receive crash_gain;
#X obj 364 590 receive tom_gain;
#X obj 364 634 receive hh_gain;
#X obj 364 678 receive ride_gain;
#X obj 1240 229 soundfiler;
#X obj 1239 258 soundfiler;
#X obj 1239 286 soundfiler;
#X obj 1239 314 soundfiler;
#X obj 1238 340 soundfiler;
#X obj 1237 368 soundfiler;
#X obj 1237 395 soundfiler;
#X obj 1237 422 soundfiler;
#X obj 708 128 bng 19 250 50 0 empty empty empty 0 -10 0 12 #ff0cf6 #000000 #000000;
#X obj 1239 556 soundfiler;
#X obj 1239 585 soundfiler;
#X obj 1239 613 soundfiler;
#X obj 1239 641 soundfiler;
#X obj 1238 667 soundfiler;
#X obj 1237 695 soundfiler;
#X obj 1237 722 soundfiler;
#X obj 1237 749 soundfiler;
#X obj 708 452 bng 19 250 50 0 empty empty empty 0 -10 0 12 #ff0cf6 #000000 #000000;
#X obj 1238 204 soundfiler;
#X obj 1238 531 soundfiler;
#X msg 749 210 read -resize ./1/ride.wav ride_array;
#X msg 749 185 read -resize ./1/crash.wav crash_array;
#X msg 749 239 read -resize ./1/hh-closed.wav hh-closed_array;
#X msg 749 267 read -resize ./1/hh-open.wav hh-open_array;
#X msg 749 295 read -resize ./1/tom3.wav tom3_array;
#X msg 748 321 read -resize ./1/snare.wav snare_array;
#X msg 748 348 read -resize ./1/tom2.wav tom2_array;
#X msg 748 376 read -resize ./1/kick.wav kick_array;
#X msg 748 402 read -resize ./1/tom1.wav tom1_array;
#X msg 749 512 read -resize ./2/crash.wav crash_array;
#X msg 749 537 read -resize ./2/ride.wav ride_array;
#X msg 749 566 read -resize ./2/hh-closed.wav hh-closed_array;
#X msg 749 594 read -resize ./2/hh-open.wav hh-open_array;
#X msg 749 622 read -resize ./2/tom3.wav tom3_array;
#X msg 748 648 read -resize ./2/snare.wav snare_array;
#X msg 748 675 read -resize ./2/tom2.wav tom2_array;
#X msg 748 703 read -resize ./2/kick.wav kick_array;
#X msg 748 729 read -resize ./2/tom1.wav tom1_array;
#X obj 1115 372 send kick_gain;
#X obj 1116 181 send crash_gain;
#X obj 1116 207 send ride_gain;
#X obj 1116 234 send hh_gain;
#X obj 1115 263 send hh_gain;
#X obj 1115 291 send tom_gain;
#X obj 1115 318 send snare_gain;
#X obj 1115 344 send tom_gain;
#X obj 1116 399 send tom_gain;
#X obj 1114 699 send kick_gain;
#X obj 1115 509 send crash_gain;
#X obj 1115 535 send ride_gain;
#X obj 1115 561 send hh_gain;
#X obj 1114 590 send hh_gain;
#X obj 1114 618 send tom_gain;
#X obj 1114 645 send snare_gain;
#X obj 1114 671 send tom_gain;
#X obj 1115 726 send tom_gain;
#X text 1022 452 T;
#X text 1066 452 K;
#X text 1113 452 S;
#X text 1152 452 HH;
#X text 1199 452 R;
#X text 1246 453 C;
#X msg 1142 471 1;
#X msg 1008 471 0.8;
#X msg 1182 471 0.45;
#X msg 1230 471 0.4;
#X msg 1095 471 1.45;
#X msg 1051 471 1.2;
#X text 1022 128 T;
#X text 1066 128 K;
#X text 1113 128 S;
#X text 1152 128 HH;
#X text 1199 128 R;
#X text 1246 129 C;
#X msg 1142 147 1;
#X msg 1181 147 0.45;
#X msg 1230 147 0.4;
#X msg 1095 147 2;
#X msg 1008 147 3.5;
#X msg 1051 147 3;
#X obj 318 745 tabplay~ def_array;
#X obj 326 14 array define def_array;
#X obj 326 36 array define slip_array;
#X obj 318 724 tabplay~ slip_array;
#X obj 708 86 soundfiler;
#X obj 708 40 soundfiler;
#X obj 191 781 receive song_vol;
#X text 735 451 Slipknot Kit;
#X text 738 128 Deftones Kit;
#X obj 795 40 hsl 162 19 0 1 0 0 empty empty empty -2 -10 0 12 #fcfcfc #00ff04 #000000 0 1;
#X obj 792 86 send song_vol;
#X text 890 87 Song Volume;
#X msg 708 17 read -resize def.wav def_array;
#X msg 708 63 read -resize slip.wav slip_array;
#X msg 492 705 stop;
#X msg 492 726 stop;
#X obj 468 726 bng 19 250 50 0 empty empty empty 0 -10 0 12 #ff0cf6 #000000 #000000;
#X obj 468 705 bng 19 250 50 0 empty empty empty 0 -10 0 12 #ff0cf6 #000000 #000000;
#X text 456 746 play;
#X text 316 703 Slipknot - Duality;
#X text 316 764 Deftones - Change (In The House of Flies);
#X obj 156 764 *~;
#X connect 0 0 1 0;
#X connect 1 0 28 0;
#X connect 7 0 67 0;
#X connect 8 0 68 0;
#X connect 9 0 69 0;
#X connect 10 0 71 0;
#X connect 11 0 70 0;
#X connect 17 0 66 0;
#X connect 18 0 64 0;
#X connect 19 0 65 0;
#X connect 20 0 63 0;
#X connect 28 0 10 0;
#X connect 28 1 11 0;
#X connect 28 2 9 0;
#X connect 28 3 8 0;
#X connect 28 4 7 0;
#X connect 28 5 17 0;
#X connect 28 6 19 0;
#X connect 28 7 18 0;
#X connect 28 8 20 0;
#X connect 39 0 46 0;
#X connect 40 0 43 0;
#X connect 41 0 84 0;
#X connect 42 0 48 0;
#X connect 49 0 53 1;
#X connect 50 0 52 1;
#X connect 51 0 55 1;
#X connect 52 0 89 0;
#X connect 53 0 91 0;
#X connect 54 0 92 0;
#X connect 55 0 93 0;
#X connect 58 0 62 1;
#X connect 59 0 60 0;
#X connect 60 0 78 0;
#X connect 61 0 59 0;
#X connect 62 0 56 0;
#X connect 62 0 56 1;
#X connect 63 0 54 0;
#X connect 64 0 77 0;
#X connect 65 0 76 0;
#X connect 66 0 76 0;
#X connect 67 0 55 0;
#X connect 68 0 53 0;
#X connect 69 0 55 0;
#X connect 70 0 52 0;
#X connect 71 0 55 0;
#X connect 73 0 54 1;
#X connect 74 0 76 1;
#X connect 75 0 77 1;
#X connect 76 0 94 0;
#X connect 77 0 95 0;
#X connect 78 0 79 0;
#X connect 79 0 62 0;
#X connect 80 0 57 0;
#X connect 81 0 86 0;
#X connect 82 0 88 0;
#X connect 89 0 61 0;
#X connect 90 0 89 1;
#X connect 91 0 61 1;
#X connect 92 0 59 1;
#X connect 93 0 60 1;
#X connect 94 0 78 1;
#X connect 95 0 79 1;
#X connect 96 0 91 1;
#X connect 97 0 92 1;
#X connect 98 0 93 1;
#X connect 99 0 94 1;
#X connect 100 0 95 1;
#X connect 109 0 121 0;
#X connect 109 0 123 0;
#X connect 109 0 124 0;
#X connect 109 0 125 0;
#X connect 109 0 126 0;
#X connect 109 0 127 0;
#X connect 109 0 128 0;
#X connect 109 0 129 0;
#X connect 109 0 122 0;
#X connect 109 0 179 0;
#X connect 109 0 180 0;
#X connect 109 0 178 0;
#X connect 109 0 175 0;
#X connect 109 0 176 0;
#X connect 109 0 177 0;
#X connect 118 0 131 0;
#X connect 118 0 132 0;
#X connect 118 0 133 0;
#X connect 118 0 134 0;
#X connect 118 0 135 0;
#X connect 118 0 136 0;
#X connect 118 0 137 0;
#X connect 118 0 138 0;
#X connect 118 0 130 0;
#X connect 118 0 164 0;
#X connect 118 0 168 0;
#X connect 118 0 167 0;
#X connect 118 0 163 0;
#X connect 118 0 165 0;
#X connect 118 0 166 0;
#X connect 120 0 110 0;
#X connect 121 0 101 0;
#X connect 122 0 119 0;
#X connect 123 0 102 0;
#X connect 124 0 103 0;
#X connect 125 0 104 0;
#X connect 126 0 105 0;
#X connect 127 0 106 0;
#X connect 128 0 107 0;
#X connect 129 0 108 0;
#X connect 130 0 120 0;
#X connect 131 0 110 0;
#X connect 132 0 111 0;
#X connect 133 0 112 0;
#X connect 134 0 113 0;
#X connect 135 0 114 0;
#X connect 136 0 115 0;
#X connect 137 0 116 0;
#X connect 138 0 117 0;
#X connect 163 0 152 0;
#X connect 163 0 151 0;
#X connect 164 0 156 0;
#X connect 164 0 155 0;
#X connect 164 0 153 0;
#X connect 165 0 150 0;
#X connect 166 0 149 0;
#X connect 167 0 154 0;
#X connect 168 0 148 0;
#X connect 175 0 143 0;
#X connect 175 0 142 0;
#X connect 176 0 141 0;
#X connect 177 0 140 0;
#X connect 178 0 145 0;
#X connect 179 0 147 0;
#X connect 179 0 146 0;
#X connect 179 0 144 0;
#X connect 180 0 139 0;
#X connect 181 0 202 0;
#X connect 184 0 202 0;
#X connect 187 0 202 1;
#X connect 190 0 191 0;
#X connect 193 0 186 0;
#X connect 194 0 185 0;
#X connect 195 0 184 0;
#X connect 196 0 181 0;
#X connect 197 0 181 0;
#X connect 198 0 184 0;
#X connect 202 0 56 0;
#X connect 202 0 56 1;
